<?xml version="1.0" standalone="no"?>
<!DOCTYPE svg PUBLIC "-//W3C//DTD SVG 20010904//EN"
 "http://www.w3.org/TR/2001/REC-SVG-20010904/DTD/svg10.dtd">
<svg version="1.0" xmlns="http://www.w3.org/2000/svg"
 width="512.000000pt" height="512.000000pt" viewBox="0 0 512.000000 512.000000"
 preserveAspectRatio="xMidYMid meet">

<g transform="translate(0.000000,512.000000) scale(0.100000,-0.100000)"
fill="#000000" stroke="none">
<path d="M2320 5110 c-502 -52 -981 -248 -1366 -558 -287 -231 -515 -516 -683
-853 -91 -181 -149 -340 -196 -529 -55 -226 -69 -347 -70 -600 0 -264 16 -404
75 -636 49 -193 93 -313 185 -499 128 -262 253 -440 455 -648 410 -424 908
-677 1505 -763 164 -24 504 -24 670 0 589 85 1106 347 1505 762 382 398 615
880 696 1439 24 166 24 506 0 670 -86 597 -339 1095 -763 1505 -208 202 -386
327 -648 455 -248 122 -480 195 -747 236 -151 23 -480 33 -618 19z m490 -760
c316 -40 577 -143 815 -323 310 -234 549 -591 633 -947 14 -55 32 -148 32
-159 0 -15 -166 -24 -203 -12 -29 10 -35 18 -46 64 -65 272 -176 480 -366 685
-313 337 -789 503 -1256 437 -165 -23 -283 -61 -454 -146 -242 -120 -444 -312
-593 -565 -62 -103 -135 -297 -166 -436 l-6 -28 -121 0 -122 0 7 52 c54 408
352 857 736 1111 233 154 431 225 750 271 57 8 282 5 360 -4z m1301 -182 c9
-16 -3 -33 -82 -116 -50 -53 -95 -99 -101 -101 -11 -4 -48 28 -48 42 0 5 43
54 96 108 97 98 114 107 135 67z m-2828 -17 c66 -25 90 -132 42 -189 -13 -16
-39 -35 -56 -42 -28 -12 -36 -11 -73 9 -50 26 -76 66 -76 116 0 95 71 141 163
106z m1470 -212 c156 -13 286 -47 411 -107 185 -89 322 -194 452 -347 132
-156 213 -327 262 -550 22 -101 24 -367 3 -470 -18 -89 -52 -195 -87 -271 -88
-187 -276 -406 -455 -531 -65 -45 -211 -120 -244 -125 -11 -2 -22 -6 -25 -10
-6 -7 -103 -35 -152 -44 -16 -3 -28 -1 -28 5 0 5 -3 18 -7 28 -6 16 -5 16 10
5 9 -8 20 -11 26 -8 5 3 12 0 14 -6 3 -7 6 -3 6 10 1 13 4 21 9 19 4 -3 20 5
36 18 23 19 26 26 17 41 -6 11 -11 13 -11 7 0 -15 -30 -18 -30 -4 0 11 29 23
40 16 5 -3 12 0 15 5 5 8 13 6 26 -6 11 -10 19 -12 19 -6 0 7 -4 12 -10 12
-26 0 -4 19 59 48 291 137 530 415 616 717 55 191 59 464 10 630 -101 344
-370 621 -722 745 -237 83 -529 85 -763 7 -59 -20 -76 -22 -86 -12 -7 7 -9 16
-4 21 5 5 1 20 -11 34 -16 20 -18 21 -13 5 l7 -20 -16 20 c-21 26 -9 37 68 63
186 62 347 80 558 61z m240 -328 c82 -22 205 -80 280 -134 130 -93 223 -212
283 -358 42 -101 55 -175 56 -299 1 -347 -190 -614 -517 -721 -65 -21 -93 -23
-382 -28 -171 -3 -315 -10 -320 -14 -4 -5 -10 -234 -13 -510 l-5 -502 -30 3
c-16 2 -54 10 -83 18 l-52 15 2 582 3 582 307 -3 c176 -2 338 1 381 7 187 26
333 112 426 250 95 142 123 301 81 465 -29 115 -73 190 -165 281 -87 87 -174
143 -275 178 -63 21 -83 22 -560 27 l-495 5 0 85 0 85 235 6 c129 3 354 5 500
3 227 -3 276 -6 343 -23z m-1213 -28 c0 -103 -12 -143 -55 -191 -91 -102 -182
-269 -214 -392 l-19 -75 -56 -3 c-35 -2 -56 1 -56 8 0 18 40 162 56 205 35 91
110 229 162 297 57 76 161 188 174 188 4 0 8 -17 8 -37z m309 -593 l-1 -350
-576 0 -575 0 7 46 c3 26 6 61 6 78 l0 31 477 2 c262 2 479 5 482 9 3 3 7 125
9 270 l3 264 85 0 84 0 -1 -350z m737 341 c286 -33 484 -240 484 -504 0 -113
-16 -168 -77 -262 -53 -82 -123 -133 -242 -178 -54 -21 -76 -21 -771 -27 -393
-3 -834 -3 -980 0 l-265 5 -8 74 c-4 40 -7 74 -5 76 2 1 426 5 944 9 994 7
978 7 1070 54 63 33 121 105 142 178 30 103 -2 206 -90 291 -85 82 -168 102
-434 103 l-202 0 -7 -102 c-3 -57 -5 -170 -3 -253 l3 -150 -87 -3 -88 -3 0
351 0 350 268 0 c147 0 303 -4 348 -9z m-1036 -188 c0 -31 -3 -43 -9 -34 -6 9
-10 2 -13 -22 -2 -21 0 -33 6 -30 5 4 7 -1 3 -11 -4 -10 -7 -42 -7 -72 l0 -54
-60 0 c-57 0 -60 1 -60 25 0 14 4 25 10 25 5 0 7 7 4 15 -11 27 17 117 37 122
11 3 19 10 19 15 0 5 -6 6 -12 3 -7 -4 4 9 24 29 21 20 42 36 48 36 5 0 10
-21 10 -47z m2507 -385 c-3 -8 -6 -5 -6 6 -1 11 2 17 5 13 3 -3 4 -12 1 -19z
m-1773 -16 c-4 -10 -2 -13 3 -7 11 14 53 17 53 4 0 -6 10 -9 22 -7 26 4 38
-29 16 -43 -11 -7 -10 -9 2 -9 9 0 10 -3 5 -9 -6 -5 -35 -11 -65 -12 -51 -3
-55 -1 -58 20 -5 34 7 93 18 86 5 -3 7 -13 4 -23z m1695 -218 c61 -7 61 -7 61
-39 0 -47 -34 -206 -66 -305 -151 -480 -558 -885 -1054 -1051 -129 -43 -163
-51 -330 -73 -118 -16 -160 -18 -160 -5 0 5 -5 9 -11 9 -5 0 -7 -5 -3 -11 8
-13 -38 -8 -47 5 -9 12 22 46 42 46 24 0 51 35 47 61 -2 12 -15 31 -30 42 -25
19 -29 19 -51 4 -13 -8 -30 -29 -37 -46 -8 -20 -19 -30 -29 -29 -12 2 -16 -6
-17 -32 -2 -55 -3 -60 -20 -60 -11 0 -14 5 -10 16 3 9 6 63 6 120 l0 104 121
0 c232 0 452 51 654 152 271 136 528 397 648 658 45 97 60 142 92 276 14 60
28 117 31 126 9 32 61 42 163 32z m-2132 -834 c2 -305 1 -561 -2 -568 -4 -10
-9 -10 -27 -1 -13 7 -50 22 -83 34 l-60 22 -3 524 c-1 288 0 530 3 537 3 9 27
12 87 10 l83 -3 2 -555z m-777 388 c74 -155 142 -251 270 -380 l115 -116 -3
-140 -4 -140 -62 46 c-33 26 -120 106 -192 177 -145 145 -245 278 -319 431
-50 101 -88 203 -77 205 4 1 43 0 87 -1 44 -1 91 3 105 9 14 5 26 10 28 10 1
1 25 -45 52 -101z m240 72 c49 -1 38 10 163 -166 16 -23 33 -61 39 -85 12 -57
12 -60 3 -84 -5 -16 -5 -17 4 -5 12 17 12 16 17 -22 3 -27 2 -28 -24 -14 -51
26 -204 214 -261 319 -37 69 -37 71 -8 63 12 -3 42 -6 67 -6z m228 -255 c-3
-3 -9 2 -12 12 -6 14 -5 15 5 6 7 -7 10 -15 7 -18z m1314 -2 c29 -33 31 -60 7
-82 -21 -20 -34 -21 -195 -21 -167 0 -173 1 -188 22 -9 12 -16 29 -16 38 0 9
7 26 16 38 15 21 21 22 188 22 152 0 175 -2 188 -17z m-1898 -341 c-17 -26
-61 -45 -81 -33 -15 8 -13 13 22 45 35 32 41 35 54 21 12 -12 13 -20 5 -33z
m1656 18 c-8 -5 -19 -10 -25 -10 -5 0 -3 5 5 10 8 5 20 10 25 10 6 0 3 -5 -5
-10z m-290 -111 l35 -19 -43 0 -42 0 1 58 c2 51 2 53 8 18 5 -31 13 -42 41
-57z m307 37 c-3 -8 -1 -17 6 -20 7 -2 3 -5 -8 -5 -14 -1 -21 5 -21 19 0 11 7
20 14 20 8 0 12 -6 9 -14z m-1558 -95 c17 -16 32 -37 32 -48 4 -63 -18 -98
-78 -125 -38 -17 -49 -18 -74 -7 -34 14 -69 54 -69 79 0 10 20 43 46 74 38 48
50 56 78 56 24 0 44 -9 65 -29z m2742 0 c62 -52 72 -139 17 -157 -54 -17 -156
46 -160 99 -4 67 10 87 66 87 31 0 50 -7 77 -29z m-2291 -551 c28 -28 25 -50
-10 -63 -16 -6 -30 -17 -30 -24 0 -7 -4 -13 -10 -13 -11 0 -13 28 -4 83 7 42
24 47 54 17z m150 -26 c22 -51 25 -74 10 -74 -5 0 -10 5 -10 10 0 15 -58 12
-63 -2 -2 -7 -7 -10 -10 -7 -8 7 35 119 46 119 4 0 17 -21 27 -46z m292 -1
c13 -27 28 -21 28 13 0 13 5 24 10 24 13 0 13 -9 -6 -63 -18 -54 -32 -60 -40
-17 -7 32 -24 41 -24 13 0 -10 -5 -25 -10 -33 -7 -12 -12 -7 -23 20 -23 56
-29 80 -20 80 5 0 14 -14 20 -31 13 -34 33 -31 33 5 0 26 13 44 18 24 2 -7 8
-23 14 -35z m198 -65 c0 -5 -7 -8 -15 -8 -8 0 -15 5 -15 10 0 14 -47 13 -52
-1 -2 -7 -9 -10 -15 -8 -7 3 -5 17 7 44 10 22 21 49 25 60 6 17 11 11 35 -35
16 -30 29 -58 30 -62z m971 93 c22 -17 22 -21 10 -45 -11 -20 -12 -28 -1 -41
8 -10 9 -15 1 -15 -6 0 -16 9 -23 20 -7 11 -16 20 -20 20 -5 0 -8 -9 -8 -20 0
-11 -4 -20 -10 -20 -6 0 -10 27 -10 60 0 52 2 60 19 60 10 0 29 -9 42 -19z
m102 -3 c15 -23 15 -23 30 -3 9 11 19 17 23 13 4 -4 1 -15 -6 -23 -7 -9 -16
-33 -20 -53 -6 -30 -8 -33 -14 -17 -6 16 -25 58 -44 98 -8 17 17 5 31 -15z
m172 -30 c14 -28 25 -55 25 -60 0 -15 -28 -8 -34 8 -4 12 -15 15 -36 12 -17
-3 -30 -3 -30 -2 0 9 40 94 45 94 3 0 16 -23 30 -52z m-2009 21 c18 -20 18
-21 -1 -35 -10 -8 -27 -14 -37 -14 -10 0 -23 -10 -28 -22 -7 -18 -9 -10 -9 35
-1 56 -1 57 27 57 17 0 37 -9 48 -21z m414 -22 c0 -24 -5 -48 -12 -55 -15 -15
-48 -16 -48 -2 0 6 6 10 14 10 14 0 26 29 26 68 0 12 5 22 10 22 6 0 10 -19
10 -43z m440 -2 c0 -38 3 -45 20 -45 11 0 20 -5 20 -11 0 -6 -14 -9 -32 -7
-28 3 -34 7 -36 32 -4 36 5 76 18 76 6 0 10 -20 10 -45z m276 -8 c12 -28 21
-53 19 -55 -2 -2 -14 4 -28 13 -22 14 -26 14 -40 0 -16 -15 -41 -21 -35 -7 2
4 11 28 22 55 10 26 24 47 30 47 6 0 21 -24 32 -53z m148 44 c3 -5 -8 -11 -24
-15 -55 -10 -49 -55 8 -56 25 0 30 -15 6 -24 -25 -9 -33 -7 -54 14 -25 25 -25
41 0 68 21 22 54 29 64 13z m96 -15 c0 -20 4 -23 21 -19 12 4 24 14 26 25 10
37 23 16 23 -37 0 -54 -15 -77 -22 -32 -2 14 -11 23 -25 25 -22 3 -28 -6 -24
-35 1 -7 -3 -13 -9 -13 -6 0 -10 23 -10 55 0 30 5 55 10 55 6 0 10 -11 10 -24z
m207 -3 c25 -58 32 -83 24 -83 -5 0 -14 7 -21 15 -7 8 -21 15 -31 15 -11 0
-19 -7 -19 -15 0 -8 -7 -15 -15 -15 -20 0 -19 8 5 64 24 53 40 58 57 19z
m-1452 -73 c3 -5 1 -10 -4 -10 -6 0 -11 5 -11 10 0 6 2 10 4 10 3 0 8 -4 11
-10z"/>
<path d="M2607 4272 c-24 -27 -21 -59 8 -78 23 -15 27 -15 50 0 30 20 33 56 7
79 -24 22 -45 21 -65 -1z"/>
<path d="M1194 4076 c-9 -24 0 -68 17 -79 44 -28 95 25 69 72 -13 25 -77 30
-86 7z"/>
<path d="M3073 1625 c-3 -9 -3 -19 1 -22 3 -4 6 1 6 11 0 10 5 14 12 10 7 -4
8 -3 4 4 -10 16 -15 15 -23 -3z"/>
<path d="M1731 3134 c0 -11 3 -14 6 -6 3 7 2 16 -1 19 -3 4 -6 -2 -5 -13z"/>
<path d="M1204 1345 c-13 -20 -14 -28 -4 -40 18 -21 47 -19 60 6 9 16 8 25 -6
40 -22 25 -30 24 -50 -6z"/>
<path d="M1720 820 c0 -22 1 -23 24 -14 23 9 20 34 -4 34 -13 0 -20 -7 -20
-20z"/>
<path d="M1881 804 c0 -11 3 -14 6 -6 3 7 2 16 -1 19 -3 4 -6 -2 -5 -13z"/>
<path d="M2340 805 c0 -8 4 -15 10 -15 5 0 7 7 4 15 -4 8 -8 15 -10 15 -2 0
-4 -7 -4 -15z"/>
<path d="M3330 830 c0 -13 7 -20 20 -20 24 0 27 25 4 34 -23 9 -24 8 -24 -14z"/>
<path d="M1580 826 c0 -10 9 -16 21 -16 24 0 21 23 -4 28 -10 2 -17 -3 -17
-12z"/>
<path d="M2730 810 c0 -5 5 -10 11 -10 5 0 7 5 4 10 -3 6 -8 10 -11 10 -2 0
-4 -4 -4 -10z"/>
<path d="M3185 811 c-3 -5 -1 -12 5 -16 5 -3 10 1 10 9 0 18 -6 21 -15 7z"/>
</g>
</svg>
